<?xml version="1.0" encoding="UTF-8" standalone="no"?>
<!-- Created with Inkscape (http://www.inkscape.org/) -->

<svg
   width="463.03818"
   height="461.44733"
   viewBox="0 0 463.03818 461.44733"
   version="1.1"
   id="svg1"
   xml:space="preserve"
   xmlns="http://www.w3.org/2000/svg"
   xmlns:svg="http://www.w3.org/2000/svg"><defs
     id="defs1"><linearGradient
       id="swatch13"><stop
         style="stop-color:#000000;stop-opacity:1;"
         offset="0"
         id="stop13" /></linearGradient><linearGradient
       id="swatch3"><stop
         style="stop-color:#000000;stop-opacity:1;"
         offset="0"
         id="stop3" /></linearGradient></defs><g
     id="layer1"
     transform="translate(-23.62726,-23.993553)"><g
       style="overflow:hidden;fill:currentColor;fill-opacity:1"
       id="g1"
       transform="matrix(0.38376588,0,0,0.38376588,64.659463,59.602663)"><rect
         style="overflow:hidden;fill:#caffff;fill-opacity:1;stroke:#000000;stroke-width:6.51439;stroke-linecap:round;stroke-linejoin:round;stroke-dasharray:none;stroke-opacity:1;paint-order:normal"
         id="rect3"
         width="1200.0498"
         height="1195.9044"
         x="-103.66269"
         y="-89.531433"
         ry="175.00092" /><path
         d="m 511.92,350.016 c -89.408,0 -161.952,72.544 -161.952,162.016 0,89.376 72.544,162.048 161.952,162.048 89.408,0 161.44,-72.672 161.44,-162.048 0,-89.472 -72,-162.016 -161.44,-162.016 z m 324.704,255.04 -29.184,70.304 58.944,115.744 -72.192,72.192 -118.432,-55.936 -70.304,28.864 -35.68,109.248 -4.576,14.496 H 463.184 l -44.16,-123.328 -70.304,-28.992 -115.904,58.688 -72.16,-72.128 55.872,-118.496 -28.96,-70.24 -123.52,-40.32 V 463.168 l 123.392,-44.224 28.96,-70.176 -51.904,-102.464 -6.848,-13.44 72.064,-72.064 118.592,55.84 70.208,-29.024 35.648,-109.184 4.608,-14.464 h 102.016 l 44.192,123.456 70.112,29.024 116.064,-58.816 72.128,72.064 -55.872,118.4 28.864,70.336 123.744,40.256 V 560.64 l -123.36,44.384 z"
         id="path1" /></g><g
       style="overflow:hidden;fill:#10ff00;fill-opacity:1"
       id="g2"
       transform="matrix(0.19413028,0,0,0.19413028,237.5988,229.17851)"><path
         d="M 1042.866,134.496 C 932.11402,50.56 761.68202,0.448 586.96202,0.448 c -216.128,0 -392.224,75.456 -483.168,207.008 -42.719996,61.792 -66.335996,134.944 -70.207996,217.472 -3.456,73.472 8.896,154.72 36.672,242.144 C 165.13802,382.688 430.06602,159.968 735.53802,159.968 c 0,0 -285.824,75.232 -465.536,308.192 -0.096,0.128 -2.496,3.104 -6.624,8.704 -36.096,48.288 -67.552,103.168 -91.072,165.312 -39.872,94.816 -76.799996,224.96 -76.799996,381.792 H 223.50602 c 0,0 -19.424,-122.208 14.368,-262.784 55.904,7.552 105.856,11.296 150.848,11.296 117.664,0 201.376,-25.472 263.392,-80.128 55.552,-48.992 86.208,-114.784 118.624,-184.448 49.536,-106.4 105.664,-227.008 268.63998,-320.16 9.344,-5.344 15.36,-14.976 16.064,-25.728 0.704,-10.752 -4.032,-21.088 -12.608,-27.584 z"
         id="path1-0"
         style="fill:#10ff00;fill-opacity:1" /></g><g
       style="overflow:hidden;fill:#13ff00;fill-opacity:1"
       id="g3"
       transform="matrix(0.15677342,0,0,0.15677342,115.97888,286.32682)"><path
         d="m 634.31111,819.2 c -8.53333,2.84444 -19.91111,2.84444 -28.44444,5.68889 C 614.4,822.04445 625.77778,819.2 634.31111,819.2 Z M 870.4,597.33333 c -2.84444,11.37778 -5.68889,19.91111 -8.53333,28.44445 2.84444,-8.53333 5.68889,-19.91111 8.53333,-28.44445 z m -11.37778,31.28889 -17.06666,34.13334 c 5.68889,-8.53334 11.37777,-19.91112 17.06666,-34.13334 z m 19.91111,-68.26666 c 0,8.53333 -2.84444,17.06666 -5.68889,25.6 2.84445,-8.53334 2.84445,-17.06667 5.68889,-25.6 z M 881.77778,512 c 0,11.37778 0,25.6 -2.84445,36.97778 2.84445,-11.37778 2.84445,-25.6 2.84445,-36.97778 z M 603.02222,822.04444 c -11.37778,2.84445 -22.75555,2.84445 -34.13333,2.84445 11.37778,0 22.75556,0 34.13333,-2.84445 z M 873.24444,585.95556 c 0,2.84444 -2.84444,5.68889 -2.84444,8.53333 0,-2.84444 0,-5.68889 2.84444,-8.53333 z m 5.68889,-36.97778 c 0,2.84444 0,5.68889 -2.84444,11.37778 2.84444,-5.68889 2.84444,-8.53334 2.84444,-11.37778 z M 637.15556,816.35556 c -2.84445,0 -2.84445,2.84444 0,0 -2.84445,2.84444 -2.84445,0 0,0 z M 859.02222,625.77778 c 0,2.84444 0,2.84444 -2.84444,5.68889 2.84444,-2.84445 2.84444,-5.68889 2.84444,-5.68889 z m -256,196.26666 z M 841.95556,662.75556 Z M 500.62222,403.91111"
         fill=""
         id="path1-5"
         style="fill:#13ff00;fill-opacity:1" /><path
         d="M 807.82222,713.95556 C 716.8,605.86667 588.8,486.4 497.77778,403.91111 492.08889,398.22222 489.24444,392.53333 489.24444,384 c 0,-17.06667 11.37778,-28.44444 28.44445,-28.44444 5.68889,0 14.22222,2.84444 19.91111,5.68888 h 2.84444 c 128,116.62223 230.4,216.17778 304.35556,301.51112 l 17.06667,-34.13334 c 0,0 0,-2.84444 2.84444,-5.68889 2.84444,-8.53333 5.68889,-19.91111 8.53333,-28.44444 0,-2.84444 2.84445,-5.68889 2.84445,-8.53333 2.84444,-8.53334 2.84444,-17.06667 5.68889,-25.6 0,-2.84445 0,-5.68889 2.84444,-11.37778 -2.84444,-11.37778 -2.84444,-25.6 -2.84444,-36.97778 0,-221.86667 -233.24445,-338.48889 -455.11111,-341.33333 -201.95556,-2.84445 -312.88889,-56.88889 -312.88889,-56.88889 0,0 28.44444,290.13333 88.17778,452.26666 68.26666,184.88889 193.42222,258.84445 366.93333,258.84445 11.37778,0 22.75555,0 34.13333,-2.84445 h 2.84445 c 8.53333,0 19.91111,-2.84444 28.44444,-5.68888 h 2.84445 c 19.91111,-5.68889 39.82222,-11.37778 59.73333,-19.91112 17.06667,-8.53333 34.13333,-17.06666 51.2,-28.44444 56.88889,65.42222 93.86667,116.62222 93.86667,139.37778 h 85.33333 c -2.84445,-42.66667 -51.2,-116.62222 -119.46667,-193.42222 z"
         fill=""
         id="path2"
         style="fill:#13ff00;fill-opacity:1" /></g></g></svg>
